<svg xmlns="http://www.w3.org/2000/svg" width="20.94" height="19.573" viewBox="0 0 20.94 19.573">
    <path d="M9.72 18.073A.487.487 0 0 1 9.471 18a28.212 28.212 0 0 1-4.7-3.557 18.715 18.715 0 0 1-3.257-3.912A9.6 9.6 0 0 1 0 5.581 5.485 5.485 0 0 1 5.371 0a5.047 5.047 0 0 1 3 1.1A5.758 5.758 0 0 1 9.72 2.544 5.758 5.758 0 0 1 11.069 1.1a5.047 5.047 0 0 1 3-1.1 5.485 5.485 0 0 1 5.371 5.581 9.611 9.611 0 0 1-1.516 4.954 18.708 18.708 0 0 1-3.256 3.912A28.212 28.212 0 0 1 9.969 18a.487.487 0 0 1-.249.068z" transform="translate(.75 .75)" style="fill:none;stroke:#414141;stroke-miterlimit:10;stroke-width:1.5px"/>
</svg>
